inDegrees=no
num_controls=7
num_derivatives=13
num_iterations=92
num_multipliers=7
num_parameters=0
num_slacks=7
num_states=26
objective=0.412623
objective_accelerations=0.028940
objective_balance=0.000663
objective_effort=0.027469
objective_height=0.349887
objective_ligament=0.005665
solver_duration=993.921282
status=Solve_Succeeded
success=true
DataType=double
version=3
OpenSimVersion=4.5
endheader
time	/jointset/ground_pelvis/pelvis_tilt/value	/jointset/ground_pelvis/pelvis_tx/value	/jointset/ground_pelvis/pelvis_ty/value	/jointset/hip_r/hip_flexion_r/value	/jointset/hip_r/hip_adduction_r/value	/jointset/hip_r/hip_rotation_r/value	/jointset/back/lumbar_extension/value	/jointset/patellofemoral_r/patellar_flexion_r/value	/jointset/knee_r/knee_flexion_r/value	/jointset/knee_r/knee_adduction_r/value	/jointset/knee_r/knee_rotation_r/value	/jointset/ankle_r/ankle_angle_r/value	/jointset/subtalar_r/subtalar_angle_r/value	/jointset/ground_pelvis/pelvis_tilt/speed	/jointset/ground_pelvis/pelvis_tx/speed	/jointset/ground_pelvis/pelvis_ty/speed	/jointset/hip_r/hip_flexion_r/speed	/jointset/hip_r/hip_adduction_r/speed	/jointset/hip_r/hip_rotation_r/speed	/jointset/back/lumbar_extension/speed	/jointset/patellofemoral_r/patellar_flexion_r/speed	/jointset/knee_r/knee_flexion_r/speed	/jointset/knee_r/knee_adduction_r/speed	/jointset/knee_r/knee_rotation_r/speed	/jointset/ankle_r/ankle_angle_r/speed	/jointset/subtalar_r/subtalar_angle_r/speed	/forceset/tau_hip_flexion_r	/forceset/tau_hip_adduction_r	/forceset/tau_hip_rotation_r	/forceset/tau_knee_flexion_r	/forceset/tau_ankle_angle_r	/forceset/tau_subtalar_angle_r	/forceset/tau_lumbar_extension	lambda_cid13_p0	lambda_cid14_p0	lambda_cid14_p1	lambda_cid14_p2	lambda_cid14_p3	lambda_cid14_p4	lambda_cid14_p5	/jointset/ground_pelvis/pelvis_tilt/accel	/jointset/ground_pelvis/pelvis_tx/accel	/jointset/ground_pelvis/pelvis_ty/accel	/jointset/hip_r/hip_flexion_r/accel	/jointset/hip_r/hip_adduction_r/accel	/jointset/hip_r/hip_rotation_r/accel	/jointset/back/lumbar_extension/accel	/jointset/patellofemoral_r/patellar_flexion_r/accel	/jointset/knee_r/knee_flexion_r/accel	/jointset/knee_r/knee_adduction_r/accel	/jointset/knee_r/knee_rotation_r/accel	/jointset/ankle_r/ankle_angle_r/accel	/jointset/subtalar_r/subtalar_angle_r/accel	gamma_cid13_p0	gamma_cid14_p0	gamma_cid14_p1	gamma_cid14_p2	gamma_cid14_p3	gamma_cid14_p4	gamma_cid14_p5
1	-0.08053016601014497	0.03085293352786252	0.7433937075460666	0.9959667487106187	-0.2242577022052743	-0.155336220888557	-0.7853388982403721	1.232827920199325	1.232827920199375	-0.1744389761669945	0.1705140958171138	0.4362504335706469	0.2039855053679553	0.07172479493535039	0.007023439349017249	0.01305664819557872	-0.1024347152459991	-0.001535915970817632	-0.0001799364764754303	0.008260313856712321	-0.01670917471711041	-0.01670917471711047	0.007071821232166088	-0.0006260289836424063	0.01336462186954437	0.004615094603936993	-0.2301644696335236	0.03518552376425377	0.02149641414842087	-0.4070677946231265	-0.041427701697952	0.007169380759792804	0.2950317485368008	-0.2793272856539097	-62.5525829577293	-10.7308677877442	5.436116342273952	5.180647735794641	-732.0769891730415	68.7055891839973	0.6277449271493277	0.1730822418267286	1.115213643896922	-3.359303073211368	0.1500595965356151	0.05888152431779702	0.609487101883481	-3.713292467909485	-3.713292467909513	1.147097562057247	0.109883829239803	-1.20152573907135	-0.3931388855282327	5.044478726951704e-10	-2.252235283619611e-11	2.492076495831096e-08	1.451907309702765e-08	2.579309908128424e-09	-5.094349366733191e-09	2.945626292066844e-08
1.01	-0.0797824362962757	0.03093209391557239	0.7435799957951506	0.9947750087393323	-0.2242659944253708	-0.1553337048662044	-0.7852230626449789	1.232475351766669	1.232475351766696	-0.174308889389612	0.1705136444533348	0.4363241901037621	0.2040112393583551	0.07778206874733945	0.008837723029513441	0.02420847492170393	-0.1359320611498066	-0.0001364254753540079	0.0006568383604834173	0.01512438932843439	-0.0538369047463458	-0.05383690474633995	0.01895394037268102	0.0005674368701685169	0.001410461471195741	0.0005193452929816105	-0.2312188957840629	0.03531847515656249	0.02153461415619073	-0.4070606856537598	-0.04190778132445734	0.007149933269742069	0.2964231656009921	-0.2824770561262183	-62.76944719623263	-10.77262806075587	5.43745466238304	4.977670584624788	-733.1738468902624	68.69860181765226	0.5888580141592368	0.1899651028454921	1.116285748458354	-3.347766677321883	0.1328131493097411	0.09213129245256432	0.7575053860290526	-3.717372574826991	-3.717372574826149	1.210032189678955	0.1288367345855645	-1.18879594371457	-0.4196389628730399	1.810019638809464e-09	-3.350180642648663e-10	3.078506413445739e-08	2.351015721057278e-08	4.708716099055911e-09	-1.20964265918112e-08	4.010363916071912e-08
1.02	-0.07897530596310301	0.03103026987442433	0.743878026023811	0.9932477320434058	-0.2242607078658506	-0.1553236099297081	-0.7850320587716092	1.231750534172825	1.231750534172883	-0.1740597288008701	0.1705260795022775	0.4362791180821079	0.2039956466538461	0.08360491879674745	0.01082655357743483	0.03540504410794531	-0.1695420601877499	0.001179839950450438	0.001335846360166245	0.02329396944868478	-0.0911590069513766	-0.09115900695136392	0.03088658349844875	0.001951253569346517	-0.0104010890670623	-0.003650244377754735	-0.232273321934175	0.03545142654875005	0.02157281416432049	-0.4070535766842536	-0.04238786095101828	0.007130485779426252	0.2978145826655494	-0.2890952674323274	-62.99319263578445	-10.8087408785807	5.430065341867246	4.769380743896482	-734.4043895655303	68.73605270415001	0.5808601746330606	0.2079916153118231	1.124162135920186	-3.381833700038584	0.1334145826037247	0.02732815686278005	0.8705880315893352	-3.752166903068626	-3.752166903068468	1.157202359108098	0.1479539983132616	-1.173003767053195	-0.4079069574845159	5.127189716753964e-09	4.951131455893596e-09	3.28313103071463e-08	5.760074780982187e-08	1.486424780573298e-09	-1.346904442648444e-08	5.380864738109939e-08
1.03	-0.0781114393593216	0.03114896807212762	0.7442881491949485	0.9913845554086383	-0.224242225380659	-0.1553079238973657	-0.7847533066554635	1.230651412787063	1.230651412787102	-0.1736921220411747	0.1705525388491796	0.4361162699622845	0.2039386514976203	0.08909524889998795	0.01291836504870567	0.04661717858635928	-0.203033387878325	0.002546465532358669	0.001739691216337841	0.03262930441800702	-0.1287078438829647	-0.1287078438829543	0.04253725720733416	0.003296678989305632	-0.02218265333472171	-0.007697697460728002	-0.2327358464424318	0.03565452569939018	0.02157290415705224	-0.4064822892332363	-0.04344287764909856	0.007140247711289972	0.2984816836596445	-0.2993574512709692	-63.36811133743683	-10.84003596894979	5.400660957366477	5.010438409379382	-734.9567366814612	68.69832012856624	0.5221490557299598	0.2105673980716169	1.119374408833743	-3.323798106452366	0.1427709754456399	0.03767300291585447	0.9909338254887923	-3.762629853672038	-3.762629853672534	1.154372424770411	0.1212671015034201	-1.182850102738391	-0.3954845846007143	8.464886308084496e-09	1.029441000902747e-08	3.483859675531012e-08	9.194745582219054e-08	-1.790475696168632e-09	-1.478421879799026e-08	6.754485592780956e-08
1.04	-0.07719486352899846	0.03128874268155125	0.7448103207718938	0.9891882623364784	-0.2242091797537482	-0.1552900473458976	-0.7843760156704296	1.229175525478879	1.229175525478907	-0.1732109340347718	0.1705911385077918	0.435835182730572	0.2038427177903852	0.09414676410564264	0.01504183592150286	0.05781472526656552	-0.2361653476841993	0.004092468292719533	0.001773950189394494	0.04300174322276092	-0.1665121914332247	-0.1665121914332173	0.05360283283591516	0.004379315915925162	-0.03404891144701742	-0.01143795457960341	-0.233198370950155	0.03585762484997732	0.0215729941498402	-0.4059110017821199	-0.04449789434722853	0.007150009643028676	0.299148784654201	-0.3134941173687851	-63.75014541411877	-10.86587004588533	5.362724774473966	5.245291289498904	-735.646244512992	68.70433864553134	0.493097195115814	0.2143234956171545	1.12124457627866	-3.309960123098484	0.1692900182941945	-0.04658901976001433	1.078008798675858	-3.803269026803064	-3.803269026803049	1.040182743047528	0.09539629964539059	-1.189942535980429	-0.3464677646650403	9.000817774492665e-09	1.095275750925236e-08	4.620110425647635e-08	1.019014749223354e-07	-1.315591024225251e-09	-1.855672976215699e-08	7.926735135906165e-08
